<svg xmlns="http://www.w3.org/2000/svg" viewBox="0 0 58 58">
<polygon style="fill:#382016;" points="53,58 56,58 56,55 51,55 "/>
<polygon style="fill:#382016;" points="5,58 2,58 2,55 7,55 "/>
<rect x="0" y="33" style="fill:#382016;" width="58" height="3"/>
<rect x="0" y="52" style="fill:#382016;" width="58" height="3"/>
<rect x="2" y="36" style="fill:#6B5B4B;stroke:#443930;stroke-width:2;stroke-linecap:round;stroke-miterlimit:10;" width="54" height="16"/>
<line style="fill:#6B5B4B;stroke:#443930;stroke-width:2;stroke-linecap:round;stroke-miterlimit:10;" x1="56" y1="44" x2="2" y2="44"/>
<rect x="2" style="fill:#38454F;" width="54" height="27"/>
<path style="fill:#AB8024;" d="M30,42h-2c-0.553,0-1-0.447-1-1s0.447-1,1-1h2c0.553,0,1,0.447,1,1S30.553,42,30,42z"/>
<path style="fill:#AB8024;" d="M30,48h-2c-0.553,0-1-0.447-1-1s0.447-1,1-1h2c0.553,0,1,0.447,1,1S30.553,48,30,48z"/>
<path style="fill:#38454F;" d="M31,30.896V27c-1-0.553-1.447-1-2-1s-1,0.447-2,1v3.896h-6V33h16v-2.104H31z"/>
<rect x="2" y="24" style="fill:#556080;" width="54" height="3"/>
</svg>
